<?xml version="1.0" encoding="UTF-8"?>
<svg width="15px" height="12px" viewBox="0 0 15 12" version="1.1" xmlns="http://www.w3.org/2000/svg" xmlns:xlink="http://www.w3.org/1999/xlink">
    <!-- Generator: Sketch 61.2 (89653) - https://sketch.com -->
    <title>quote-close</title>
    <desc>Created with Sketch.</desc>
    <g id="quote-close" stroke="none" stroke-width="1" fill="none" fill-rule="evenodd" fill-opacity="0.4">
        <path d="M4.56056533,5.31691667 C4.78843319,5.25240614 4.97468135,5.25240614 5.12139079,5.31691667 C5.26810023,5.3824677 5.34093471,5.59264719 5.34093471,5.9516171 C5.34093471,7.02332437 5.0235845,7.99930634 4.38992456,8.87748201 C3.75626463,9.75669817 2.80525449,10.4871239 1.53689413,11.0729212 L2.21945721,12 C3.97580855,11.3486517 5.27538368,10.3664268 6.12130408,9.04916327 C6.96722449,7.73085927 7.38966444,6.19509234 7.38966444,4.438741 C7.38966444,3.13916587 7.1045695,2.07370155 6.5354201,1.24442903 C5.96731119,0.415156507 5.11410734,0 3.97580855,0 C3.12988815,0 2.42235325,0.269487557 1.85320385,0.806381687 C1.28509494,1.34223532 1,2.01647446 1,2.8301396 C1,3.67397902 1.30902627,4.37318998 1.92707882,4.92673199 C2.54513136,5.4792335 3.22769444,5.6738056 3.97580855,5.51148877 L4.56056533,5.31691667 Z M12.3642591,5.31691667 C12.5588312,5.25240614 12.729472,5.25240614 12.8772219,5.31691667 C13.0218503,5.3824677 13.0957253,5.59264719 13.0957253,5.9516171 C13.0957253,7.02332437 12.7877395,7.99930634 12.1686465,8.87748201 C11.5516344,9.75669817 10.6079077,10.4871239 9.33954739,11.0729212 L10.023151,12 C11.7795023,11.3486517 13.0707535,10.3664268 13.900026,9.04916327 C14.7292985,7.73085927 15.1434145,6.19509234 15.1434145,4.438741 C15.1434145,3.13916587 14.8687245,2.07370155 14.3151825,1.24442903 C13.762681,0.415156507 12.9178011,0 11.7795023,0 C10.9335819,0 10.2177231,0.269487557 9.63296627,0.806381687 C9.04716899,1.34223532 8.7547906,2.01647446 8.7547906,2.8301396 C8.7547906,3.25257955 8.84531345,3.64276424 9.02323767,3.99965317 C9.20220238,4.35758259 9.43007023,4.66660886 9.70580075,4.92673199 C9.98257175,5.18685511 10.299922,5.37414376 10.6568109,5.48755744 C11.0157808,5.60097113 11.3893176,5.60929507 11.7795023,5.51148877 L12.3642591,5.31691667 Z" id="Fill-1" fill="#000000"></path>
    </g>
</svg>