<?xml version="1.0" encoding="UTF-8"?>
<svg width="15px" height="12px" viewBox="0 0 15 12" version="1.1" xmlns="http://www.w3.org/2000/svg" xmlns:xlink="http://www.w3.org/1999/xlink">
    <!-- Generator: Sketch 61.2 (89653) - https://sketch.com -->
    <title>quote-open</title>
    <desc>Created with Sketch.</desc>
    <g id="quote-open" stroke="none" stroke-width="1" fill="none" fill-rule="evenodd" fill-opacity="0.4">
        <path d="M10.5856028,6.68274068 C10.3576756,6.74830876 10.1724198,6.74830876 10.0246314,6.68274068 C9.87788378,6.61821336 9.80607112,6.40693842 9.80607112,6.04891587 C9.80607112,4.97484822 10.1224631,3.99965308 10.7562879,3.12228968 C11.3901127,2.24388552 12.3424111,1.51222897 13.6100607,0.926279271 L12.9283608,0 C11.1705117,0.650477016 9.87059844,1.6329575 9.0254987,2.95056375 C8.17831743,4.26816999 7.75680833,5.80433651 7.75680833,7.56114484 C7.75680833,8.86209887 8.04093669,9.92784042 8.61023417,10.7562879 C9.17849089,11.5847355 10.0329575,12 11.1705117,12 C12.0166522,12 12.7243712,11.7325239 13.2936687,11.1944493 C13.8619254,10.6584562 14.1470945,9.98404163 14.1470945,9.17120555 C14.1470945,8.32610581 13.8379879,7.62671292 13.2208153,7.07302689 C12.6015611,6.52038161 11.9188205,6.32575889 11.1705117,6.48811795 L10.5856028,6.68274068 Z M2.77987858,6.68274068 C2.58525585,6.74830876 2.41457069,6.74830876 2.26782307,6.68274068 C2.12211622,6.61821336 2.04822203,6.40693842 2.04822203,6.04891587 C2.04822203,4.97484822 2.35732871,3.99965308 2.97554206,3.12228968 C3.59271466,2.24388552 4.5366869,1.51222897 5.80537728,0.926279271 L5.12159584,0 C3.36582827,0.650477016 2.07320035,1.6329575 1.24371206,2.95056375 C0.414223764,4.26816999 -1.42108547e-14,5.80433651 -1.42108547e-14,7.56114484 C-1.42108547e-14,8.86209887 0.275802255,9.92784042 0.828447528,10.7562879 C1.3810928,11.5847355 2.2272333,12 3.36582827,12 C4.21092801,12 4.92697311,11.7325239 5.51188205,11.1944493 C6.09783174,10.6584562 6.39028621,9.98404163 6.39028621,9.17120555 C6.39028621,8.74865568 6.30078057,8.35941023 6.1217693,8.00034692 C5.94275802,7.64128361 5.71483088,7.33321769 5.43902862,7.07302689 C5.1621856,6.81283608 4.84475282,6.62653946 4.48777103,6.51101474 C4.12974848,6.39861232 3.75611448,6.38924545 3.36582827,6.48811795 L2.77987858,6.68274068 Z" id="Fill-1" fill="#000000"></path>
    </g>
</svg>