<svg xmlns="http://www.w3.org/2000/svg" width="877.792" height="167.431" viewBox="124.62 766.491 877.792 167.431"><path d="M134.485 845.703c6.165-.243 12.784 9.58 17.408 1.692 1.392-2.299 1.849-19.466 1.45-29.256-.603-14.93.371-19.22 11.968-28.408 10.515-8.33 19.947-15.597 30.707-21.52 2.417-.845 5.168-.211 6.648 1.21 1.572 1.328 2.387 4.141-.21 6.86-8.705 8.703-16.261 13.206-25.056 20.249-3.206 2.565-8.068 5.983-9.006 10.396-.725 19.887 8.039 45.304-12.995 59.086-10.154 4.713-21.76.844-29.257-6.647-1.45-1.453-2.055-3.87-.966-5.562 2.418-3.265 5.197-7.375 9.309-8.1zM247.152 872.072c-3.478 3.479-9.064 4.229-9.671 3.928-1.004-.499-1.229-.742-1.662-1.437-.377-.604-1.819-3.492-2.712-5.557-2.175-5.033-3.193-10.315-5.113-15.751 0 0-.106-.376-.408-.754-.201-.251-.637-.228-1.089.076-6.181 5.667-11.983 12.225-19.479 15.127-3.021.604-5.32-1.692-6.647-3.991-.907-1.646-2.207-4.97-2.903-4.35-6.95 4.623-16.078 12.087-24.902 5.799-4.442-3.602-2.944-10.488-1.359-14.505 4.641-11.505 11.782-19.839 24.358-25.493 2.738-1.369 7.257-1.3 9.399-.015 7.495 5.923 3.988 15.958 5.317 23.694 1.209 1.691 3.175 2.161 5.199.966 3.778-2.599 9.083-6.148 10.76-8.702-.242-26.476 5.048-51.742 25.598-69.392 2.267-1.813 5.29-1.602 6.559-.469 6.271 5.5 7.375 17.182 4.353 28.031-4.231 14.507-12.331 28.046-22.365 39.772-.241 10.396 4.303 19.479 7.768 29.663.774 2.292-.32 2.679-1.001 3.36zm-62.741-19.962c.242 1.691 2.055 3.021 3.749 2.898 5.317-1.207 8.702-6.405 10.517-10.999.619-2.448 1.933-6.528-.363-9.066-1.21-.604-2.312-.378-3.897.59-6.167 3.869-10.247 9.565-10.006 16.577zm56.336-40.618c-.121 2.658-1.089 7.132-.364 9.307 5.079-4.351 7.646-10.229 10.76-16.319 2.539-5.561 5.305-15.397 1.208-19.463-1.147-.739-3.294 1.512-4.109 2.901-3.991 7.253-6.046 15.353-7.495 23.574z"/><path d="M260.299 865.953c-3.916-11.199-7.73-27.622-7.948-31.251-.12-3.868 3.145-6.65 6.045-8.705 1.783-.893 4.231-2.448 5.803-1.208 1.89 1.33 3.702 13.389 5.804 20.309.302.683.996.289 2.055-.846 9.549-9.065 18.012-27.562 33.607-20.55 6.406 2.66 15.957-5.441 20.309 3.142 3.988 7.858-1.692 18.014 2.658 26.354 1.33 5.562 13.663.242 7.858 7.255-4.23 4.713-9.792 7.737-15.956 5.562-3.266-.85-5.229-6.166-7.858-4.956-6.043 4.106-13.661 8.463-20.914 4.956-2.055-1.448-3.596-3.491-3.505-6.407.546-11.205 5.007-18.61 9.854-25.109.229-.454.767-1.146.236-1.6-1.372-1.221-3.016-.057-4.53.959-10.759 9.308-18.904 21.309-28.092 32.062-1.29 1.338-1.972 1.823-3.537 1.591-.831 0-1.36-.576-1.889-1.558zm41.859-14.689c.725 1.33 2.463 1.949 4.109 1.45 5.804-2.537 9.551-8.824 10.397-15.109-.062-1.724-1.209-3.265-3.145-3.265-6.646 2.296-11.966 9.671-11.361 16.924zM381.127 833.017c-.519-1.19-2.508-.932-3.761-1.14-6.256-.197-6.847-2.343-8.721 3.672-3.988 9.549-6.77 19.703-12.814 28.408-1.45 1.936-3.867 2.539-6.043 1.814-4.231-1.937-5.923-6.406-7.495-10.154-3.387-10.882-7.618-21.398-9.672-32.883-.287-3.099.243-7.979 4.352-9.55 5.275-1.89 18.209 3.489 24.662 4.714.453.075.996-.257 2.055-4.109 2.539-13.177 5.562-26.232 7.253-39.772.604-1.935 2.056-3.265 4.11-3.506 3.036.209 5.982 1.234 7.894 3.55.756.831.749 2.668.674 3.65-.998 14.123-5.504 27.936-8.93 41.641-.514 2.522 2.751 2.599 5.318 3.142 11.301 2.884 19.487-.263 29.562-3.243 2.815-.784 4.41-1.667 5.986-.28 5.032 4.431 11.835 2.31 13.17 8.723 1.813 7.979.694 18.813 6.889 23.212 1.937 1.087 3.688-.347 4.958-1.089 3.339-2.433.03-1.934 2.296-11.605 1.451-6.768 6.65-13.901 13.419-16.318 3.869-1.33 8.22-1.33 12.209 0 4.959 2.78 7.375 8.1 6.65 13.901-1.391 9.612-9.551 10.276-14.507 14.87-.364 1.451 1.33 3.265 2.901 3.751 9.98 2.515 24.053-7.08 34.284 2.144 2.276 2.011-2.269 6.405-3.492 7.473-.679.524-1.534.391-2.216.242-4.234-1.658-10.444-4.56-15.886-2.063-7.734 3.144-18.011 8.159-25.747 1.511-2.419-1.328-3.144-5.44-6.166-4.35-5.683 2.657-14.371 9.487-18.556 5.348-7.858-9.43-5.863-22.395-11.304-32.912-1.208-1.572-3.565-2.689-5.047-1.828-1.571 1.043 1.707 3.914 1.541 8.72.604 10.396-5.078 21.034-15.353 25.629-4.836 2.657-12.692 2.414-17.046-.971-4.956-4.35-5.561-11.966-3.869-17.647 1.465-3.83 3.349-7.449 5.849-10.859.458-.688.669-1.307.593-1.836zm-33.058 8.3c.204 1.451.8 2.673 1.19 4.068.254.99 1.139 3.693 2.207 3.969.604.075.85-.092 1.681-1.301 2.853-4.917 4.121-9.354 5.246-15.723.126-1.235-.093-1.477-.723-1.854-3.671-2.163-7.186-2.902-11.385-3.872-.981-.226-1.241.782-1.016 1.766.12.713.245 1.426.377 2.137.227.757 1.668 5.446 2.423 10.81zm37.985 7.53c0 2.356.846 4.472 3.144 5.563 1.934.721 3.868 0 5.562-.607 2.417-1.451 4.653-3.869 5.561-6.647.726-3.506 1.45-8.462-1.813-11.002-1.692-1.088-4.11-1.088-5.802 0-4.838 2.658-6.168 8.098-6.652 12.693zm69.633-7.496c3.749-.846 7.572-3.007 9.913-6.406.892-1.375.705-4.246-.967-5.439-1.48-.892-2.855-1.072-4.354-.362-4.23 2.415-6.406 7.854-4.592 12.207zM996 821.781c2.871 0 6.561 2.312 6.407 6.242-.15 3.928-1.965 6.043-6.044 5.894l-4.535-.423c-12.464-1.835-26.164-1.704-39.369-2.574-.679 0-1.666-.044-2.043.258-1.369 1.229.094.339.795 7.029.847 10.156-3.507 20.431-13.058 25.144-5.803 2.784-14.625 2.542-19.944-.843-3.629-3.023-5.092-6.136-5.94-10.247-.513-2.795-3.038-.513-4.214.453-6.396 5.249-17.197 12.073-20.674 12.693-2.297.484-3.775-1.193-4.593-3.144-1.089-5.077 1.828-8.839 1.087-13.116-.32-.806-.588-.366-1.087.062-7.012 6.408-14.657 17.695-22.969 16.198-5.762-3.918-1.75-11.24-2.93-17.15-.078-.679-.189-1.4-1.02-.646-4.962 3.626-8.641 7.847-13.913 11.45-3.638 2.48-11.199 9.383-16.107 5.741-2.869-2.229-1.534-12.125-2.03-15.781-.074-.453-.104-1.206-.858-.525-5.56 4.808-10.539 13.021-17.662 15.825-3.386.481-5.924-2.422-7.495-4.956-.627-.943-.802-2.062-1.621-2.899-.044-.128-.617-.355-1.116.014-6.22 3.621-11.459 10.308-19.628 8.324-2.66-.726-4.956-2.781-5.802-5.438-.992-2.428-.199-5.609-1.534-7.735-.3-.597-.86-.432-1.312-.071-3.988 3.479-7.796 7.948-11.42 12.156-4.353 26.236-11.426 54.886-33.97 69.028-2.539 1.089-6.166 1.691-8.947.604-5.316-3.264-6.771-9.548-5.56-15.718 4.713-15.471 15.353-28.648 25.265-42.067l10.759-13.054c.983-1.288.061-.833-.847-.606-5.681 2.057-12.451 5.562-18.617 2.057-2.296-.967-3.22-5.729-5.438-4.353-4.231 3.146-8.103 7.615-14.025 5.803-3.311-1.106-4.204-4.528-5.809-7.142-.378-.525-.892-.971-1.493-.594-3.776 2.326-8.179 8.189-14.096 7.734-3.265-.122-6.406-1.571-7.855-4.592-.364-1.21-.833-3.643-2.057-3.265-6.288 3.021-8.327 15.594-16.199 11.604-9.188-8.22-6.8-22.153-6.8-33.761.106-.922-.317-2.16-1.299-2.508-2.678-.543-1.24 2.07-3.87 9.671-3.143 9.311-9.911 21.885-21.155 24.056-2.777.121-5.438-1.571-6.647-4.106-3.867-7.619-1.207-17.528-1.207-26.112 0-.529-.326-1.063-.547-1.119-.304-.074-.755.272-.906.727-1.298 3.763-2.902 7.163-4.353 11.152-3.746 8.341-13.492 17.211-21.155 18.858-10.759 1.937-20.898-3.142-26.943-12.453-1.17-1.806-2.593-7.463-2.704-8.463-.303-2.719-1.813-3.021-2.417-3.172-.604-.151.253.06-1.527-.515-5.484-1.769-10.646-3.148-16.304-3.654-1.096 0-1.662.335-1.976 1.067-5.345 12.114-8.203 24.662-13.651 36.737-1.571 2.781-5.742 2.436-8.098 1.813-1.989-.593-3.214-1.233-4.886-2.604-.83-.681-.781-2.34-.326-3.771 2.262-8.62 5.524-15.605 8.354-24.451-1.45-8.342-5.802-15.475-7.251-23.814 0-2.056 1.254-3.688 3.142-4.353 3.386-.725 5.998.197 9.761.755.381-.073.906-.391.759-.996-5.32-14.748-9.599-28.529-12.137-44.366-.239-2.555.847-5.229 2.828-6.406.756-.529 1.933-.998 3.746-.849 46.542 1.814 94.081 4.248 139.053 6.424 3.569.353 4.746.927 3.704 6.104-2.218 8.553-9.607 6.657-24.891 6.264-36.65-.941-73.054-5.21-108.777-8.447-1.584-.076-3.583-.384-3.81 1.732-.168 1.354.172 3.132.374 4.335 1.811 6.527 3.172 12.604 7.764 18.647.378.454 1.089.151 1.394-.152 3.682-4.354 6.514-12.098 11.213-14.976 1.531-.831 4.811.159 5.65 2.675.151.757.451 2.751 0 4.112l-7.556 26.034c-.55 1.806.135 5.202 2.343 6.029.604.227 2.731 1.179 3.173 1.36 1.284.527 8.94 3.146 9.521 3.323 1.477.454 1.912.025 2.583-.755 5.68-6.891 11.938-12.301 21.247-11.938 5.319.122 9.669 3.626 11.847 8.1 1.692 3.626 1.571 8.582-.481 11.847-3.87 7.133-11.364 8.946-18.859 8.705-2.464.317.239 3.626 1.45 4.956 4.353 3.987 10.64 6.043 16.44 3.747 7.516-3.639 13.089-11.727 13.405-19.832 0-.755-.095-1.293-.624-1.594-2.013-1.265-4.922-4.234-4.922-7.588 0-2.176 1.119-3.954 2.329-5.768 2.569-2.372 5.344-2.646 8.422-1.879 1.812.454 3.297 2.581 6.247 2.857 4.012.375 4.515-1.363 6.727-1.466 1.963-.091 3.111 1.178 3.232 2.871-.605 8.703-5.077 18.979-.485 26.597.969 1.209 2.66 1.45 3.992.966 5.15-2.689 6.691-12.902 4.955-15.956-2.057-3.385-5.077-6.647-3.506-11.123.979-2.492 2.447-3.601 4.713-4.352 5.14-1.647 10.033 5.439 16.442 3.506 3.628-.725 6.195-5.229 10.215-2.992.682.303 2.145 1.859 1.315 4.354-2.903 9.671-4.519 18.827-3.312 29.104.242 1.209 1.453 3.145 3.146 2.297 10.153-12.33 14.928-29.588 31.853-34.664 7.512-1.965 10.957 9.928 11.664 15.321.691 5.243 1.515 11.712 4.354 15.354.996 1.21 4.229-1.935 5.562-4.11 5.077-8.462 8.822-19.402 17.346-25.342 2.296-1.386 13.308-.12 17.318 5.788 3.099 4.262 4.262 12.906 3.897 19.554.725 1.814 2.299.484 3.146 0 10.637-8.946 20.188-22.001 33.727-25.75 2.404-.664 6.181.711 7.253 2.298 4.475 6.771 4.108 15.596 6.892 23.21 1.089 1.936 3.263 3.266 5.562 2.298 9.065-7.615 14.625-23.747 21.686-26.769 1.433-.942 4.602.579 5.03 2.75 1.691 8.824-1.662 16.781-2.51 25.243.074 1.979 2.51.105 3.599-.619 10.033-7.496 14.566-15.013 22.002-24.896 2.057-3.154 4.426-5.04 7.164-2.645 3.674 4.251 1.422 13.943 1.224 16.01l-2.465 12.618c.286 1.028 2.057.121 2.903-.484 10.879-7.978 14.958-21.873 25.204-26.979 2.312-1.346 4.951-.19 6.104 2.115 1.878 3.877-3.833 16.678-4.754 24.689-.107.655.317.898.183.898 1.355.396 5.711-3.021 8.316-4.833 13.301-8.824 22.305-25.222 40.861-23.815l48.293-.105zm-421.6 9.415c-1.558 2.023-1.332 4.836 1.45 4.956 3.021.727 6.287.12 8.704-1.812.921-.771 2.418-3.144 1.45-5.198-.969-1.813-2.66-3.294-5.407-2.6-2.659.846-4.625 2.6-6.197 4.654zm110.733 11.364c-.482 2.538-1.328 4.957 1.453 6.892 3.143 1.452 6.148-1.087 7.615-2.539 2.538-3.145 3.745-6.771 3.143-11.122-.242-1.933-1.51-4.624-4.217-3.37-4.231 2.418-6.541 5.786-7.994 10.139zm53.192 40.256c-7.736 9.065-14.507 18.01-18.62 28.165-.604 1.451-1.932 3.385-.604 4.959 2.057 1.331 4.113-.969 5.806-2.297 8.701-8.462 13.9-19.709 14.868-31.435.079-.827-.694-.298-1.45.608zm-3.87-44.306c-1.932 5.078-4.353 11.787.364 16.5 1.449.851 3.988.851 5.438 0 6.772-3.987 5.319-11.845 4.717-18.012-.485-2.174-1.692-4.715-4.354-4.351-2.536.604-5.015 3.461-6.165 5.863zm47.873 2.841c-.905 2.676-.359 7.133 2.418 8.946 2.026.982 4.596-.363 6.287-1.934 3.265-3.869 5.169-8.75 3.354-13.947-.741-1.92-3.023-3.644-4.809-2.615-3.504 2.175-5.799 5.681-7.25 9.55zm142.529 7.253c.364 1.571 1.449 2.899 2.902 3.746 3.385.846 6.647 0 8.943-2.539 2.539-3.263 2.557-8.416 1.813-11.968-.846-1.812-3.021-3.869-5.319-2.539-4.229 2.783-9.185 7.377-8.339 13.3z"/></svg>