<?xml version="1.0" encoding="UTF-8"?>
<svg width="153px" height="28px" viewBox="0 0 153 28" version="1.1" xmlns="http://www.w3.org/2000/svg" xmlns:xlink="http://www.w3.org/1999/xlink">
    <!-- Generator: Sketch 52.2 (67145) - http://www.bohemiancoding.com/sketch -->
    <title>logo</title>
    <desc>Created with Sketch.</desc>
    <g id="Page-1" stroke="none" stroke-width="1" fill="none" fill-rule="evenodd">
        <g id="d-08-02-01artistPage-grid" transform="translate(-165.000000, -412.000000)">
            <g id="logo" transform="translate(165.000000, 412.000000)">
                <path d="M36.173913,11.9207921 C37.7347178,11.9207921 39,13.1860743 39,14.746879 L39,17.8273784 C39,19.3881831 37.7347178,20.6534653 36.173913,20.6534653 C34.6131083,20.6534653 33.3478261,19.3881831 33.3478261,17.8273784 L33.3478261,14.746879 C33.3478261,13.1860743 34.6131083,11.9207921 36.173913,11.9207921 Z M2.82608696,5.40594059 C4.38689168,5.40594059 5.65217391,6.67122282 5.65217391,8.23202755 L5.65217391,15.4709427 C5.65217391,17.0317475 4.38689168,18.2970297 2.82608696,18.2970297 C1.26528223,18.2970297 -8.9207685e-16,17.0317475 -1.77635684e-15,15.4709427 L0,8.23202755 C-1.91143451e-16,6.67122282 1.26528223,5.40594059 2.82608696,5.40594059 Z M13.8713768,0 C15.4451882,-2.8910447e-16 16.7210145,1.27582625 16.7210145,2.84963768 L16.7210145,10.0303623 C16.7210145,11.6041738 17.9968407,12.88 19.5706522,12.88 C21.1444636,12.88 22.4202899,11.6041738 22.4202899,10.0303623 L22.4202899,8.44963768 C22.4202899,6.87582625 23.6961161,5.6 25.2699275,5.6 C26.843739,5.6 28.1195652,6.87582625 28.1195652,8.44963768 L28.1195652,25.1503623 C28.1195652,26.7241738 26.843739,28 25.2699275,28 C23.6961161,28 22.4202899,26.7241738 22.4202899,25.1503623 L22.4202899,21.3296377 C22.4202899,19.7558262 21.1444636,18.48 19.5706522,18.48 C17.9968407,18.48 16.7210145,19.7558262 16.7210145,21.3296377 L16.7210145,25.1503623 C16.7210145,26.7241738 15.4451882,28 13.8713768,28 C12.2975654,28 11.0217391,26.7241738 11.0217391,25.1503623 L11.0217391,2.84963768 C11.0217391,1.27582625 12.2975654,2.8910447e-16 13.8713768,0 Z" id="Combined-Shape" fill="#FF0039" fill-rule="nonzero"></path>
                <path d="M62.352993,19.7078652 L62.352993,14.4473924 L55.7208707,14.4473924 L55.7208707,19.7078652 L53,19.7078652 L53,7.14606742 L55.7208707,7.14606742 L55.7208707,12.0018884 L62.352993,12.0018884 L62.352993,7.14606742 L65.0738636,7.14606742 L65.0738636,19.7078652 L62.352993,19.7078652 Z M78.1420455,15.0714112 C78.1420455,16.5788485 77.6557482,17.7771255 76.6831391,18.6662779 C75.71053,19.5554304 74.3986584,20 72.7474848,20 C71.0963112,20 69.8070581,19.5701513 68.8796866,18.7104409 C67.9523151,17.8507306 67.4886364,16.6612861 67.4886364,15.142072 C67.4886364,14.1645931 67.7035119,13.3048956 68.1332694,12.5629538 C68.5630269,11.821012 69.1822077,11.2439548 69.9908304,10.8317649 C70.7994531,10.419575 71.757911,10.2134831 72.866233,10.2134831 C74.5174066,10.2134831 75.809487,10.6403877 76.7425132,11.4942096 C77.6755394,12.3480316 78.1420455,13.5404201 78.1420455,15.0714112 Z M75.4431818,15.1067416 C75.4431818,14.1980722 75.2098449,13.496194 74.7431641,13.0010857 C74.2764832,12.5059774 73.6102079,12.258427 72.7443182,12.258427 C71.8896738,12.258427 71.2262097,12.5088898 70.7539063,13.0098228 C70.2816028,13.5107559 70.0454545,14.2097219 70.0454545,15.1067416 C70.0454545,16.0154109 70.2787915,16.7172892 70.7454723,17.2123975 C71.2121531,17.7075057 71.8728059,17.9550562 72.7274503,17.9550562 C73.5820947,17.9550562 74.24837,17.7075057 74.7262962,17.2123975 C75.2042223,16.7172892 75.4431818,16.0154109 75.4431818,15.1067416 Z M80.1306818,19.7078652 L80.1306818,7.14606742 L82.6875,7.14606742 L82.6875,19.7078652 L80.1306818,19.7078652 Z M95.4715909,15.0714112 C95.4715909,16.5788485 94.9852937,17.7771255 94.0126846,18.6662779 C93.0400755,19.5554304 91.7282038,20 90.0770303,20 C88.4258567,20 87.1366035,19.5701513 86.209232,18.7104409 C85.2818606,17.8507306 84.8181818,16.6612861 84.8181818,15.142072 C84.8181818,14.1645931 85.0330573,13.3048956 85.4628149,12.5629538 C85.8925724,11.821012 86.5117532,11.2439548 87.3203758,10.8317649 C88.1289985,10.419575 89.0874565,10.2134831 90.1957784,10.2134831 C91.846952,10.2134831 93.1390325,10.6403877 94.0720587,11.4942096 C95.0050848,12.3480316 95.4715909,13.5404201 95.4715909,15.0714112 Z M92.9147727,15.1067416 C92.9147727,14.1980722 92.6814358,13.496194 92.214755,13.0010857 C91.7480741,12.5059774 91.0817988,12.258427 90.2159091,12.258427 C89.3612647,12.258427 88.6978007,12.5088898 88.2254972,13.0098228 C87.7531937,13.5107559 87.5170455,14.2097219 87.5170455,15.1067416 C87.5170455,16.0154109 87.7503824,16.7172892 88.2170632,17.2123975 C88.683744,17.7075057 89.3443968,17.9550562 90.1990412,17.9550562 C91.0536856,17.9550562 91.7199609,17.7075057 92.1978871,17.2123975 C92.6758132,16.7172892 92.9147727,16.0154109 92.9147727,15.1067416 Z M110.119318,19.7078652 L110.119318,11.1398042 L106.232955,19.7078652 L104.136364,19.7078652 L100.25,11.2101785 L100.25,19.7078652 L97.7443182,19.7078652 L97.7443182,7.14606742 L100.914773,7.14606742 L105.244318,16.6817738 L109.556818,7.14606742 L112.659091,7.14606742 L112.659091,19.7078652 L110.119318,19.7078652 Z M122.406992,19.7176392 L122.406992,18.235245 C121.449084,19.4117542 120.2489,20 118.806404,20 C117.713263,20 116.865246,19.6941122 116.262327,19.0823274 C115.659409,18.4705426 115.357955,17.6175862 115.357955,16.5234326 L115.357955,10.505618 L117.876675,10.505618 L117.876675,16.0469487 C117.876675,16.6822637 118.025994,17.1528604 118.324636,17.4587528 C118.623277,17.7646452 119.082503,17.9175891 119.702325,17.9175891 C120.423573,17.9175891 121.065925,17.6587609 121.6294,17.1410969 C121.85479,16.9293252 122.032282,16.682262 122.161881,16.3998998 C122.291481,16.1175375 122.356279,15.8234146 122.356279,15.5175222 L122.356279,10.505618 L124.875,10.505618 L124.875,19.7176392 L122.406992,19.7176392 Z M133.778849,13.1635704 C133.654142,12.7749342 133.4104,12.4893497 133.047615,12.3068085 C132.684831,12.1242673 132.174673,12.032998 131.517125,12.032998 C130.111335,12.032998 129.408451,12.3509683 129.408451,12.9869184 C129.408451,13.2460092 129.538824,13.4403244 129.799576,13.5698698 C130.060327,13.6994152 130.559149,13.8230703 131.296055,13.9408388 L132.46943,14.1174908 C133.501099,14.2705899 134.294678,14.4678492 134.850192,14.7092747 C135.405706,14.9507002 135.799661,15.2568939 136.03207,15.6278648 C136.264479,15.9988357 136.380682,16.4669586 136.380682,17.0322476 C136.380682,18.0097265 135.989561,18.748713 135.207306,19.2492293 C134.425052,19.7497456 133.268694,20 131.738196,20 C130.185025,20 128.994656,19.7350248 128.167053,19.2050663 C127.339451,18.6751079 126.857635,17.8684055 126.721591,16.7849349 L129.153369,16.7849349 C129.346098,17.668199 130.196362,18.1098244 131.704185,18.1098244 C132.48644,18.1098244 133.053282,18.033276 133.40473,17.8801769 C133.756177,17.7270778 133.931898,17.4797675 133.931898,17.1382388 C133.931898,16.879148 133.787353,16.6789444 133.498259,16.5376222 C133.209165,16.3962999 132.696173,16.2726448 131.959267,16.1666531 L130.870919,16.0076664 C129.453791,15.7839062 128.458983,15.451215 127.886464,15.009583 C127.313944,14.567951 127.027689,13.9114012 127.027689,13.039914 C127.027689,12.1448731 127.421644,11.4500491 128.209567,10.9554212 C128.99749,10.4607934 130.099998,10.2134831 131.517125,10.2134831 C132.888905,10.2134831 133.9489,10.4284075 134.697143,10.8582627 C135.445386,11.2881179 135.938539,11.9623326 136.176617,12.8809273 L133.778849,13.1635704 Z M138.369318,19.7078652 L138.369318,10.505618 L140.926136,10.505618 L140.926136,19.7078652 L138.369318,19.7078652 Z M138.369318,9.19101124 L138.369318,7 L140.926136,7 L140.926136,9.19101124 L138.369318,9.19101124 Z M153,16.3786355 C152.830609,17.5327672 152.328091,18.4248505 151.492431,19.0549122 C150.65677,19.6849739 149.550101,20 148.17239,20 C146.557533,20 145.301238,19.5789838 144.403467,18.7369387 C143.505697,17.8948936 143.056818,16.7083934 143.056818,15.1774023 C143.056818,14.1999235 143.260084,13.3372818 143.666621,12.5894516 C144.073159,11.8416214 144.666017,11.2586758 145.445214,10.8405975 C146.224412,10.4225192 147.144754,10.2134831 148.206268,10.2134831 C149.482345,10.2134831 150.521258,10.4990676 151.323041,11.070245 C152.124823,11.6414224 152.632988,12.4569573 152.847549,13.5168742 L150.306702,13.8171825 C150.17119,13.2990009 149.925577,12.9044822 149.569856,12.6336146 C149.214136,12.3627469 148.759611,12.2273151 148.206268,12.2273151 C147.415779,12.2273151 146.794689,12.4834579 146.34298,12.995751 C145.891272,13.5080442 145.665421,14.2117007 145.665421,15.1067416 C145.665421,16.0253362 145.888449,16.734881 146.334511,17.2353973 C146.780573,17.7359136 147.410132,17.986168 148.223207,17.986168 C148.833014,17.986168 149.329886,17.8477921 149.713838,17.571036 C150.09779,17.2942799 150.340579,16.896817 150.442214,16.3786355 L153,16.3786355 Z" id="HoloMusic" fill="#FFFFFF"></path>
            </g>
        </g>
    </g>
</svg>